<?xml version="1.0" encoding="utf-8"?>
<svg id="master-artboard" viewBox="0 0 234.16099548339844 254.29795837402344" version="1.1" xmlns="http://www.w3.org/2000/svg" x="0px" y="0px" style="enable-background:new 0 0 1400 980;" width="234.16099548339844px" height="254.29795837402344px"><rect id="ee-background" x="0" y="0" width="234.16099548339844" height="254.29795837402344" style="fill: white; fill-opacity: 0; pointer-events: none;"/>




<linearGradient id="SVGID_1_" gradientUnits="userSpaceOnUse" x1="-0.5557" y1="490.0002" x2="1400.5557" y2="490.0002">
	<stop offset="0" style="stop-color:#C79937"/>
	<stop offset="0.2528" style="stop-color:#FFFBCC"/>
	<stop offset="0.2906" style="stop-color:#F8F0BB"/>
	<stop offset="0.3658" style="stop-color:#E7D28E"/>
	<stop offset="0.4704" style="stop-color:#CCA246"/>
	<stop offset="0.5037" style="stop-color:#C3922E"/>
	<stop offset="0.8147" style="stop-color:#EED688"/>
	<stop offset="1" style="stop-color:#C79836"/>
</linearGradient>

<g transform="matrix(1, 0, 0, 1, -10.479452066582212, -4.366438751540045)">
	<g transform="matrix(1, 0, 0, 1, -766.7465414272176, 97.8082148256794)">
		
		
		<path class="st0" d="M1220,748.9c2.9-5.5,5.3-11.3,7.3-17.3h-58V723h55.6v-51.8h-55.6v-11.5h57.8c-2-6-4.5-11.8-7.4-17.3h-50.4&#10;&#9;&#9;&#9;v-17.2h39.2c-5-6.3-10.6-12.2-16.9-17.3h-22.4v-14.6c-5.5-2.7-11.3-5.1-17.3-6.9v21.5h-33.5h-33.5v-21.5c-6,1.8-11.8,4.1-17.3,6.9&#10;&#9;&#9;&#9;v14.6h-22.4c-6.2,5.2-11.9,11-16.9,17.3h39.2v17.2h-50.4c-2.9,5.5-5.4,11.3-7.4,17.3h57.8v11.5H1012V723h55.6v8.5h-58&#10;&#9;&#9;&#9;c2,6,4.4,11.8,7.3,17.3h50.8v9H1022c4,6.2,8.6,12,13.7,17.3h60.7v17.2h-39.8c14.2,9.1,30.6,15.2,48.2,17.3h9v-51.8h-28.8v-9h33.5&#10;&#9;&#9;&#9;h33.5v9h-28.8v51.8h9c17.6-2.1,34-8.2,48.2-17.3h-39.8v-17.2h60.7c5.1-5.3,9.7-11.1,13.7-17.3h-45.5v-9H1220z M1084.9,625.2h33.5&#10;&#9;&#9;&#9;h33.5v17.2h-33.5h-33.5V625.2z M1067.6,705.7h-9.6h-28.6v-17.2h28.6h9.6h17.3h5.7h5.7v17.2h-5.7h-5.7H1067.6z M1151.9,731.6h-33.5&#10;&#9;&#9;&#9;h-33.5V723h28.8v-51.8h-28.8v-11.5h33.5h33.5v11.5h-28.8V723h28.8V731.6z M1151.9,705.7h-5.7h-5.7v-17.2h5.7h5.7h17.3h8h30.2v17.2&#10;&#9;&#9;&#9;h-30.2h-8H1151.9z" style="fill: rgb(156, 29, 34);" transform="matrix(1, 0, 0, 1, -224.43491815460504, -659.3321580013103)"/>
	<path d="M 1137.1060791015625 179.10958862304688 L 1137.1060791015625 179.10958862304688 L 1123.133544921875 157.2773895263672" style="fill: rgb(255, 255, 255); fill-opacity: 1; stroke: rgb(0, 0, 0); stroke-opacity: 1; stroke-width: 0; paint-order: stroke;"/><path d="M 838.4417114257812 105.75342559814453" style="fill: rgb(255, 255, 255); fill-opacity: 1; stroke: rgb(0, 0, 0); stroke-opacity: 1; stroke-width: 0; paint-order: fill;"/><path d="M 985.154052734375 424.50341796875" style="fill: rgb(156, 29, 34); fill-opacity: 1; stroke: rgb(0, 0, 0); stroke-opacity: 1; stroke-width: 0; paint-order: fill;"/></g>
	
</g></svg>